<svg xmlns="http://www.w3.org/2000/svg" width="33.571" height="33.571" viewBox="0 0 33.571 33.571">
  <path id="Icon_material-local-offer" data-name="Icon material-local-offer" d="M35.581,19.081,20.474,3.974A3.336,3.336,0,0,0,18.107,3H6.357A3.367,3.367,0,0,0,3,6.357v11.75a3.35,3.35,0,0,0,.99,2.384L19.1,35.6a3.336,3.336,0,0,0,2.367.974,3.282,3.282,0,0,0,2.367-.99l11.75-11.75a3.282,3.282,0,0,0,.99-2.367,3.39,3.39,0,0,0-.99-2.384ZM8.875,11.393a2.518,2.518,0,1,1,2.518-2.518A2.514,2.514,0,0,1,8.875,11.393Z" transform="translate(-3 -3)" fill="#c44545"/>
</svg>
