<svg xmlns="http://www.w3.org/2000/svg" width="55.932" height="33.571" viewBox="0 0 55.932 33.571">
  <path id="Icon_awesome-handshake" data-name="Icon awesome-handshake" d="M37.99,4.5H30.483a2.8,2.8,0,0,0-1.888.734L20,13.1c-.009.009-.017.026-.026.035a3.476,3.476,0,0,0-.184,4.894,3.645,3.645,0,0,0,4.9.236c.009-.009.026-.009.035-.017l6.983-6.4A1.4,1.4,0,1,1,33.6,13.912L31.322,16l12.725,10.33a6.3,6.3,0,0,1,.69.673V10.093L39.965,5.321A2.776,2.776,0,0,0,37.99,4.5Zm9.552,5.611V29.678a2.794,2.794,0,0,0,2.8,2.8h5.593V10.111Zm4.195,19.567a1.4,1.4,0,1,1,1.4-1.4A1.4,1.4,0,0,1,51.737,29.678ZM0,32.466H5.593a2.794,2.794,0,0,0,2.8-2.8V10.111H0Zm4.195-5.584a1.4,1.4,0,1,1-1.4,1.4A1.4,1.4,0,0,1,4.195,26.882ZM42.29,28.507,29.242,17.915l-2.622,2.4a6.291,6.291,0,0,1-8.5-9.272L25.265,4.5H17.942a2.792,2.792,0,0,0-1.975.821l-4.78,4.772V29.661h1.6l7.909,7.158a5.592,5.592,0,0,0,7.865-.813l.017-.017,1.564,1.355a3.248,3.248,0,0,0,4.571-.472L37.457,33.5l.472.385a2.792,2.792,0,0,0,3.933-.411l.83-1.023a2.8,2.8,0,0,0-.4-3.941Z" transform="translate(0 -4.5)" fill="#c44545"/>
</svg>
