<svg xmlns="http://www.w3.org/2000/svg" width="19.74" height="19.738" viewBox="0 0 19.74 19.738">
  <path id="Icon_ionic-ios-call" data-name="Icon ionic-ios-call" d="M23.66,19.958A16.58,16.58,0,0,0,20.2,17.64c-1.038-.5-1.418-.488-2.153.041-.612.442-1.007.853-1.711.7a10.208,10.208,0,0,1-3.438-2.544A10.135,10.135,0,0,1,10.35,12.4c-.149-.709.262-1.1.7-1.711.529-.735.545-1.115.041-2.153A16.252,16.252,0,0,0,8.773,5.071c-.755-.755-.925-.591-1.341-.442A7.632,7.632,0,0,0,6.2,5.282,3.7,3.7,0,0,0,4.729,6.839c-.293.632-.632,1.809,1.095,4.882a27.24,27.24,0,0,0,4.789,6.387h0l.005.005.005.005h0a27.346,27.346,0,0,0,6.387,4.789C20.083,24.634,21.26,24.3,21.892,24a3.642,3.642,0,0,0,1.557-1.475A7.632,7.632,0,0,0,24.1,21.3C24.251,20.883,24.42,20.713,23.66,19.958Z" transform="translate(-4.49 -4.502)" fill="#c44545"/>
</svg>
