<svg xmlns="http://www.w3.org/2000/svg" xmlns:xlink="http://www.w3.org/1999/xlink" width="138" height="138" viewBox="0 0 138 138">
  <defs>
    <clipPath id="clip-path">
      <circle id="Ellipse_45" data-name="Ellipse 45" cx="69" cy="69" r="69" transform="translate(1585 844)" fill="#efefef"/>
    </clipPath>
  </defs>
  <g id="Mask_Group_49" data-name="Mask Group 49" transform="translate(-1585 -844)" opacity="0.695" clip-path="url(#clip-path)" style="mix-blend-mode: luminosity;isolation: isolate">
    <g id="Group_8674" data-name="Group 8674" transform="translate(-4248.95 9538.862)">
      <rect id="Rectangle_5016" data-name="Rectangle 5016" width="138" height="103.5" transform="translate(5833.95 -8677.612)" fill="none"/>
      <path id="Hummer-Logo.wine" d="M47.91,0H39.059V12.31h6.977V6.05l2.6,6.26h3.7l2.6-6.26v6.26h6.974V0h-8.85L50.486,5.717ZM72.262,0H63.413V12.31h6.976V6.05l2.6,6.26h3.7l2.6-6.26v6.26h6.974V0h-8.85L74.84,5.717ZM7.393,4.519V0H0V12.31H7.393V7.653h3.479V12.31h7.394V0H10.873V4.519ZM87.8,0V12.31H103.66V9.347H95.2V7.5h8.462V4.809H95.2V2.964h8.462V0ZM27,0V8.263c.015,1.063.713,1.328,1.665,1.328.93,0,1.639-.282,1.639-1.352V0h7.374v8.28c0,3.653-2.66,4.442-9.012,4.441s-9.039-.776-9.039-4.442V0Zm87.589,5.621c1.38,0,2.041-.5,2.041-1.521,0-1.278-.833-1.622-2.048-1.622h-2.161V5.621Zm2.058,6.686-4.226-4.413V12.31h-7.4V0h11.877c2.493,0,6.62-.068,6.4,4.039-.1,1.921-2.109,3.321-3.7,3.666l4.936,4.6Z" transform="translate(5840.005 -8635.179)"/>
    </g>
  </g>
</svg>
