<svg xmlns="http://www.w3.org/2000/svg" xmlns:xlink="http://www.w3.org/1999/xlink" width="137" height="138" viewBox="0 0 137 138">
  <defs>
    <clipPath id="clip-path">
      <ellipse id="Ellipse_40" data-name="Ellipse 40" cx="68.5" cy="69" rx="68.5" ry="69" transform="translate(0.239)" fill="#efefef"/>
    </clipPath>
  </defs>
  <g id="Mask_Group_44" data-name="Mask Group 44" transform="translate(-0.239)" opacity="0.695" clip-path="url(#clip-path)" style="mix-blend-mode: luminosity;isolation: isolate">
    <g id="layer1" transform="translate(-0.722 42.986)">
      <path id="path737" d="M1190.28,1346.462c-38.173,0-68.774,11.442-68.774,25.788,0,14.258,30.852,25.789,68.774,25.789s68.775-11.569,68.775-25.789-30.852-25.788-68.775-25.788" transform="translate(-1121.506 -1346.462)" fill="#003478"/>
      <path id="path741" d="M1238.934,1385.544c.018.118.174.231.324.285.055.019.082.055.025.181a14.786,14.786,0,0,1-1.359,2.245,8.426,8.426,0,0,1-1.724,1.865c-1.016.841-2.427,1.756-3.593,1.141a1.764,1.764,0,0,1-.732-1.581,8.264,8.264,0,0,1,2.115-5.01c1.653-2.035,3.48-3.09,4.679-2.513,1.241.592.845,2.028.289,3.156a.316.316,0,0,0-.025.232m13.314-12.86c.089-.157,0-.273-.2-.273l-3.476,0c-.257,0-.39.031-.511.271-.4.764-5.256,8.043-6.16,9.456-.152.215-.338.185-.36-.062a3.041,3.041,0,0,0-1.959-2.266,4.979,4.979,0,0,0-2.607-.3,9.288,9.288,0,0,0-4.272,2.008c-1.886,1.434-3.513,3.292-5.613,4.665-1.147.747-2.717,1.4-3.768.426-.951-.882-.843-2.84.611-4.354.153-.159.337-.024.308.116a1.919,1.919,0,0,0,.551,1.843,2.074,2.074,0,0,0,2.321.254,3.041,3.041,0,0,0,1.614-2.329,2.65,2.65,0,0,0-2.435-3.018,4.866,4.866,0,0,0-3.5,1.268,6.705,6.705,0,0,0-1.378,1.514c-.119.172-.3.189-.3-.064.056-1.979-.762-3.092-2.4-3.128a6.094,6.094,0,0,0-3.683,1.5,34.147,34.147,0,0,0-3.259,3.323c-.135.143-.253.136-.291-.141a6.665,6.665,0,0,0-.969-3.483.807.807,0,0,0-1.046-.257,7.6,7.6,0,0,0-1.229.734.69.69,0,0,0-.208.781,9.16,9.16,0,0,1-.338,6.066,6.686,6.686,0,0,1-3.814,3.8,2.51,2.51,0,0,1-2.946-.8c-.97-1.343-.578-3.68.868-5.62a10.879,10.879,0,0,1,4.963-3.492.288.288,0,0,0,.2-.407c-.1-.3-.26-.715-.324-.9-.169-.45-.642-.522-1.219-.46a10.365,10.365,0,0,0-3.737,1.252c-3.121,1.672-4.687,4.907-5.372,6.637a6.771,6.771,0,0,1-.978,1.81,17.949,17.949,0,0,1-2.239,2.173.4.4,0,0,0-.092.457,4.907,4.907,0,0,0,.868,1.142.511.511,0,0,0,.483-.1,11.674,11.674,0,0,0,2.2-1.961c.162-.2.329-.115.415.185a4.855,4.855,0,0,0,3.126,3.325c2.862.965,5.831-.432,8.071-2.864a32.009,32.009,0,0,0,2.484-3.216,30.018,30.018,0,0,1,4.923-5.357c.8-.607,1.74-1.07,2.214-.763.381.247.5.82-.107,1.931-2.216,4.047-5.476,8.8-6.074,9.954-.109.2-.012.357.2.357,1.16-.006,2.309,0,3.362,0a.4.4,0,0,0,.341-.212c1.7-2.662,3.3-5.2,5.016-7.815.1-.155.184-.037.188.031a4.353,4.353,0,0,0,.546,1.985,2.969,2.969,0,0,0,2.586,1.449,4.847,4.847,0,0,0,2.1-.44,7.339,7.339,0,0,0,1.721-.924c.256-.178.3.12.295.166-.394,2.113.092,4.617,2.193,5.656,2.513,1.239,5.275-.5,6.864-2.075.156-.151.322-.135.338.191a2.917,2.917,0,0,0,.8,1.812c1.332,1.336,4.018.807,6.715-1.28a33.807,33.807,0,0,0,5.179-5.223.233.233,0,0,0-.012-.328c-.249-.261-.61-.559-.857-.789a.308.308,0,0,0-.373,0,43.37,43.37,0,0,1-5.369,4.919c-.736.514-1.909.928-2.436.215a1.172,1.172,0,0,1,.019-1.162c.636-1.587,10.709-16.922,11.232-17.826" transform="translate(-1143.071 -1354.293)" fill="#fff"/>
      <path id="path745" d="M1195.668,1370.515c.043.228.132.272.235.253a2.467,2.467,0,0,0,1.407-1.014c.3-.444.445-1.084.144-1.34a.8.8,0,0,0-1.029.121,2.284,2.284,0,0,0-.758,1.981M1170,1390.255c-3.756.025-7.064-2.295-7.444-6.313a8.111,8.111,0,0,1,1.678-5.845,8.313,8.313,0,0,1,4.611-2.962,1.735,1.735,0,0,1,1.511.31.818.818,0,0,1-.13,1.341,7.765,7.765,0,0,0-3.419,3.15,3.864,3.864,0,0,0,.192,3.991c1.508,2.277,5.712,2.34,9.621-1.292a33.552,33.552,0,0,0,2.715-2.754,61.308,61.308,0,0,0,4.583-5.86.128.128,0,0,0,.024-.108c-.018-.043-.049-.049-.117-.055a6.99,6.99,0,0,0-4.155,1.465.808.808,0,0,1-1.144-.124.916.916,0,0,1,.356-1.229c2.083-1.448,4.358-1.711,6.681-2.1a.384.384,0,0,0,.294-.169c.954-1.224,1.674-2.328,2.691-3.566a27.19,27.19,0,0,1,3.359-3.276,14.987,14.987,0,0,1,3.236-2.122c.242-.127-.031-.278-.1-.278-5.135-.965-10.473-2.214-15.573-.326-3.532,1.318-5.08,4.119-4.335,5.991.53,1.328,2.276,1.544,3.91.744a8.841,8.841,0,0,0,3.505-3.118c.5-.767,1.548-.214.981,1.117-1.492,3.508-4.344,6.29-7.816,6.408a4.56,4.56,0,0,1-4.856-4.761c.012-5.291,5.9-8.776,12.093-9.3,7.455-.616,14.516,1.37,21.918,2.267a47.664,47.664,0,0,0,16.809-.608.858.858,0,0,1,1.1.964c-.055.984-.818,1.931-2.7,2.955a13.731,13.731,0,0,1-6.7,1.546c-5.641.049-10.9-2.152-16.333-3.334.006.238.069.522-.13.672-3.012,2.222-5.735,4.478-7.558,7.646-.062.073-.031.143.078.136,1.583-.084,3.007-.125,4.485-.243.259-.025.268-.086.246-.274a3.674,3.674,0,0,1,1.149-3.194,2.144,2.144,0,1,1,3.369,2.652,3.618,3.618,0,0,1-2.189,1.776s-.172.037-.146.193c.031.25,1.148.868,1.244,1.033a.524.524,0,0,1-.125.586.705.705,0,0,1-.54.258,1.132,1.132,0,0,1-.552-.2,5.27,5.27,0,0,1-1.544-1.243c-.142-.178-.215-.181-.57-.162-1.6.092-4.093.333-5.783.544-.41.049-.47.127-.554.269-2.694,4.442-5.571,9.233-8.729,12.44-3.387,3.439-6.2,4.345-9.192,4.368" transform="translate(-1133.881 -1350.274)" fill="#fff"/>
      <path id="path749" d="M1191.519,1351.655c-35.119,0-63.585,9.7-63.585,21.579s28.466,21.581,63.585,21.581,63.583-9.705,63.583-21.581-28.465-21.579-63.583-21.579m0,45.116c-36.4,0-65.9-10.538-65.9-23.537s29.505-23.537,65.9-23.537,65.9,10.536,65.9,23.537-29.5,23.537-65.9,23.537" transform="translate(-1122.747 -1347.438)" fill="#fff"/>
    </g>
  </g>
</svg>
