<svg xmlns="http://www.w3.org/2000/svg" xmlns:xlink="http://www.w3.org/1999/xlink" width="138" height="138" viewBox="0 0 138 138">
  <defs>
    <clipPath id="clip-path">
      <circle id="Ellipse_42" data-name="Ellipse 42" cx="69" cy="69" r="69" transform="translate(1106 844)" fill="#efefef"/>
    </clipPath>
  </defs>
  <g id="Mask_Group_46" data-name="Mask Group 46" transform="translate(-1106 -844)" opacity="0.695" clip-path="url(#clip-path)" style="mix-blend-mode: luminosity;isolation: isolate">
    <g id="CADILLAC_2DCREST" transform="translate(1106 865.207)">
      <g id="CADILLAC_2DCREST_POS_RGB" transform="translate(0 21.803)">
        <path id="Shape" d="M30.152,23.586H18.306l-.916-5.428H68.253v5.428H66.879V19.43H29.721ZM17.184,16.919H68.239V12.94H16.523Zm31.933,13.35H68.246v-2.85H49.124ZM16.024,11.674h12.1L25.834,7.692H66.881v3.965h1.374V6.317H12.276ZM89.057,6.317h-19.3v8H89.066Zm-68,30.836c.314.476.9,1.03,2.825,1.555.934.229,1.973.458,3.411.778H47.78V36.663H20.795a2.976,2.976,0,0,0,.261.49Zm-1.17-4.313H47.78V24.866H18.519ZM49.117,44.026c7.143,1.406,14.126,2.7,19.14,3.489V34.133H49.117ZM90.38,23.586H119.7l1.339-8H90.38Zm0-14.726V11.7l31.539-.011L123.9,8.86ZM138,0l-9.291,13.116c-1.019,5.57-3.681,19.918-3.984,21.315-.875,4.016-1.294,6.458-9.176,8.334-10.495,2.489-34.5,7.326-46.558,9.215-12.054-1.886-36.047-6.726-46.542-9.215-7.883-1.875-8.3-4.318-9.176-8.334-.3-1.387-2.965-15.744-3.984-21.315L0,0Zm-7.326,2.466H7.335l7.326,10.46C16.493,23.805,17.626,30.8,18.1,33.238c.815,4.242.959,6.072,5.341,7.253,8.714,2.06,33.966,7.253,45.571,9,11.605-1.751,36.86-6.937,45.578-9,4.382-1.181,4.526-3.011,5.341-7.253.458-2.438,1.6-9.432,3.434-20.312Zm-60.915,27.8h1.374V26.241h36.489c-.048.391-.389,3.091-.565,4.039h11.523l.916-5.415H69.759Zm0,5.215h47.849l.774-3.963H69.759ZM89.066,18.16H69.759v2.855H89.066Zm-19.307,18.5h47.464a2.466,2.466,0,0,1-.256.49c-.314.476-.888,1.062-2.83,1.545-8.595,2.138-32.215,6.822-44.378,8.812Zm1.374,9.245c2.189-.4,7.537-1.328,9.444-1.692,19.419-3.711,22.75-4.277,24.369-6.181H71.133Z"/>
      </g>
    </g>
  </g>
</svg>
