<svg xmlns="http://www.w3.org/2000/svg" width="85" height="85" viewBox="0 0 85 85">
  <g id="Group_102" data-name="Group 102" transform="translate(4359 11410)">
    <g id="Group_98" data-name="Group 98" transform="translate(-5638 -15316)">
      <g id="Ellipse_21" data-name="Ellipse 21" transform="translate(1279 3906)" fill="none" stroke="#707070" stroke-width="0.5">
        <circle cx="42.5" cy="42.5" r="42.5" stroke="none"/>
        <circle cx="42.5" cy="42.5" r="42.25" fill="none"/>
      </g>
      <path id="Icon_awesome-hand-holding-usd" data-name="Icon awesome-hand-holding-usd" d="M18.112,10.146l3.516,1.005a.591.591,0,0,1-.162,1.16H19.16a1.809,1.809,0,0,1-.724-.155.872.872,0,0,0-.991.141l-1.23,1.23a.843.843,0,0,0,.105,1.294,5.138,5.138,0,0,0,2.236.809v1.245A1.128,1.128,0,0,0,19.68,18h1.125a1.128,1.128,0,0,0,1.125-1.125V15.637a3.956,3.956,0,0,0,3.466-4.43A4.126,4.126,0,0,0,22.38,7.854L18.865,6.848a.591.591,0,0,1,.162-1.16h2.306a1.809,1.809,0,0,1,.724.155.872.872,0,0,0,.991-.141l1.23-1.23a.843.843,0,0,0-.105-1.294,5.138,5.138,0,0,0-2.236-.809V1.125A1.128,1.128,0,0,0,20.812,0H19.687a1.128,1.128,0,0,0-1.125,1.125V2.362A3.956,3.956,0,0,0,15.1,6.792,4.126,4.126,0,0,0,18.112,10.146ZM37.54,23.07a2.112,2.112,0,0,0-2.834,0l-6.131,5.2a4.089,4.089,0,0,1-2.658.984H18.063a1.127,1.127,0,0,1,0-2.25h5.2a2.252,2.252,0,0,0,.113-4.5H12.748a7.518,7.518,0,0,0-4.915,1.849L4.746,27H1.062A1.1,1.1,0,0,0,0,28.125v6.75A1.1,1.1,0,0,0,1.062,36H24.75a4.117,4.117,0,0,0,2.658-.984l10.041-8.508a2.336,2.336,0,0,0,.091-3.438Z" transform="translate(1302.568 3926.451)" fill="#7e7e7e"/>
    </g>
  </g>
</svg>
