<svg xmlns="http://www.w3.org/2000/svg" width="17.566" height="17.566" viewBox="0 0 17.566 17.566">
  <path id="ic_phone_forwarded_24px" d="M12.145,8.93a8.116,8.116,0,0,1-2.55-.407.729.729,0,0,0-.729.171L7.294,10.266A10.748,10.748,0,0,1,2.586,5.558L4.158,3.979a.686.686,0,0,0,.179-.714A8.116,8.116,0,0,1,3.929.714.717.717,0,0,0,3.215,0H.714A.716.716,0,0,0,0,.714,12.144,12.144,0,0,0,12.145,12.859a.717.717,0,0,0,.714-.714v-2.5A.717.717,0,0,0,12.145,8.93Z" transform="translate(6.43) rotate(30)" fill="#fff"/>
</svg>
