<svg xmlns="http://www.w3.org/2000/svg" xmlns:xlink="http://www.w3.org/1999/xlink" width="138" height="138" viewBox="0 0 138 138">
  <defs>
    <clipPath id="clip-path">
      <circle id="Ellipse_41" data-name="Ellipse 41" cx="69" cy="69" r="69" transform="translate(-0.061)" fill="#efefef"/>
    </clipPath>
  </defs>
  <g id="Mask_Group_45" data-name="Mask Group 45" transform="translate(0.061)" opacity="0.695" clip-path="url(#clip-path)" style="mix-blend-mode: luminosity;isolation: isolate">
    <g id="Group_8673" data-name="Group 8673" transform="translate(0.663 17.194)">
      <rect id="Rectangle_5016" data-name="Rectangle 5016" width="137.549" height="103.161" fill="none"/>
      <g id="Footer" transform="translate(7.744 8.946)">
        <g id="Footer_Large_1400px" transform="translate(0)">
          <g id="Top_lockup" transform="translate(0)">
            <g id="Group_8672" data-name="Group 8672">
              <path id="Fill-3" d="M80.983,70.657h-4.36V62.593h4.36c2.643,0,3.439,1.189,3.439,4.1,0,2.775-.793,3.964-3.439,3.964m.925-10.574H68.959V61.8l1.585.132c.529.132.925.264.925,1.057v7a1.094,1.094,0,0,1-.923,1.191l-1.719.264v1.719H81.908c4.624,0,8.588-1.85,8.588-6.607s-3.832-6.475-8.588-6.475" transform="translate(5.56 4.395)" fill-rule="evenodd"/>
              <g id="A" transform="translate(94.979 64.394)">
                <path id="Clip-6" d="M-16.518-16.223V-29.3H-43.34v13.081Z" transform="translate(43.6 29.304)" fill="none"/>
                <path id="Fill-5" d="M-34.2-22.433l2.643-3.964,2.907,3.964Zm15.99,4.36a1.861,1.861,0,0,1-1.454-1.057l-6.607-9.248c-.529-.66-.793-.925-1.454-.925H-38.56v1.719l2.51.264a.6.6,0,0,1,.567.391.6.6,0,0,1-.17.667L-40.542-19a1.093,1.093,0,0,1-1.057.66l-1.982.264v1.719h9.113v-1.719l-1.585-.132c-.66,0-1.057-.529-.66-1.057l.66-1.057h8.717l.66.925c.529.793-.132,1.057-.793,1.189l-1.585.132v1.719h12.292v-1.719Z" transform="translate(43.581 29.304)" fill-rule="evenodd"/>
              </g>
              <path id="Fill-8" d="M59.52,61.788l1.85.264a1.094,1.094,0,0,1,.922,1.19v6.607l-7.267-9.113a1.392,1.392,0,0,0-1.321-.529H44.325v1.719l1.85.264a1.094,1.094,0,0,1,.925,1.189V70.25a1.094,1.094,0,0,1-.925,1.189l-1.85.259v1.719h8.721V71.7l-1.85-.264a1.094,1.094,0,0,1-.925-1.189v-6.6l7.267,9.113a1.392,1.392,0,0,0,1.321.529H65.6V63.374a1.094,1.094,0,0,1,.925-1.189l1.85-.264V60.2H59.651v1.585Z" transform="translate(3.769 4.407)" fill-rule="evenodd"/>
              <g id="O" transform="translate(25.12 63.676)">
                <path id="Clip-11" d="M9.594-13.256H-11.943V-28.319H9.594Z" transform="translate(12.076 28.319)" fill="none"/>
                <path id="Fill-10" d="M-1.234-15.9c-3.3,0-4.757-1.454-4.757-4.889,0-3.3,1.321-4.889,4.757-4.889,3.3,0,4.757,1.454,4.757,4.889,0,3.3-1.454,4.889-4.757,4.889m0-12.42c-8.588,0-10.832,4.1-10.832,7.531,0,3.568,2.246,7.531,10.832,7.531S9.6-17.353,9.6-20.788c0-3.568-2.246-7.531-10.832-7.531" transform="translate(12.066 28.319)" fill-rule="evenodd"/>
              </g>
              <path id="Fill-1" d="M13.513,61.8l1.85.264a1.094,1.094,0,0,1,.925,1.189V65.37H7.832V63.256a1.094,1.094,0,0,1,.925-1.189l1.849-.263V60.084H-.493V61.8l1.85.264a1.094,1.094,0,0,1,.925,1.189v6.871a1.094,1.094,0,0,1-.925,1.189l-1.85.263V73.3h11.1V71.579l-1.85-.264a1.094,1.094,0,0,1-.925-1.189V68.012h8.588v2.114a1.094,1.094,0,0,1-.922,1.189l-1.85.264V73.3h11.1V71.579l-1.855-.264a1.094,1.094,0,0,1-.925-1.189V63.256a1.094,1.094,0,0,1,.925-1.19l1.85-.264V60.083h-11.1V61.8Z" transform="translate(0.493 4.393)" fill-rule="evenodd"/>
              <g id="emblem" transform="translate(28.765)">
                <path id="Fill-13" d="M33.659,4.555c-1.585,6.738-2.114,9.91-3.3,14.8-1.189,4.757-2.114,9.113-3.7,11.231a7.015,7.015,0,0,1-5.288,2.77,16.146,16.146,0,0,1-2.907.132,15.35,15.35,0,0,1-2.907-.132,7.443,7.443,0,0,1-5.285-2.775c-1.585-2.114-2.51-6.474-3.7-11.231C5.384,14.465,4.724,11.294,3.27,4.555a18.388,18.388,0,0,0-2.246.132,13.583,13.583,0,0,0-2.378.132S-.429,18.826-.033,24.638c.4,6.21,1.189,16.648,1.85,24.576a19.314,19.314,0,0,0,3.439.264l3.171.4c.925-3.439,2.114-8.324,3.3-10.438A4.349,4.349,0,0,1,15.3,37.454c1.454-.132,2.643-.264,3.171-.264h0a17.238,17.238,0,0,1,3.171.264,4.349,4.349,0,0,1,3.568,1.982c1.321,2.114,2.378,6.871,3.3,10.438,0,0,.925,0,3.171-.132,2.114-.132,3.439-.264,3.439-.264.66-7.928,1.454-18.365,1.85-24.576L38.284,5.084c-.793-.132-1.454-.132-2.378-.264a8.769,8.769,0,0,0-2.247-.265" transform="translate(14.567 0.334)" fill-rule="evenodd"/>
                <path id="Fill-15" d="M48.432,28.671A90.772,90.772,0,0,1,46.45,43.6c-.793,2.775-1.719,4.624-3.171,5.946-2.378,2.246-5.682,2.775-7.531,3.039a124.068,124.068,0,0,1-16.516.925,124.068,124.068,0,0,1-16.515-.925c-1.85-.264-5.153-.793-7.531-3.039-1.454-1.321-2.378-3.171-3.171-5.946-.925-3.17-1.454-7.531-1.985-14.93a99.48,99.48,0,0,1,.264-15.459c.66-5.682,3.439-8.588,9.248-9.646A63.23,63.23,0,0,1,9.188,2.509c2.775-.132,7.4-.264,9.91-.264s7.135.132,9.91.264a71.249,71.249,0,0,1,9.912,1.058c5.813,1.057,8.588,3.964,9.248,9.646a119.5,119.5,0,0,1,.264,15.459M51.6,13.346c-.925-9.113-6.738-11.1-11.891-12.023C37.069.926,32.576.53,29.538.4,27.028.132,20.95,0,19.1,0S11.173.132,8.662.264A82.783,82.783,0,0,0-1.511,1.321C-6.664,2.246-12.478,4.1-13.4,13.345c-.264,2.51-.264,5.813-.264,9.248.132,5.813.529,9.777.793,12.42a59.02,59.02,0,0,0,1.85,10.306c1.321,3.964,2.51,5.153,3.832,6.342C-4.682,53.775-.454,54.436.471,54.7c4.757.925,14.271,1.057,18.5,1.057s13.741-.132,18.5-1.057c.925-.132,5.021-.793,7.663-3.039,1.454-1.189,2.51-2.378,3.832-6.342a61.24,61.24,0,0,0,1.848-10.306,109.259,109.259,0,0,0,.793-12.42,53.657,53.657,0,0,0,0-9.248" transform="translate(13.667)" fill-rule="evenodd"/>
              </g>
            </g>
          </g>
        </g>
      </g>
    </g>
  </g>
</svg>
