<svg xmlns="http://www.w3.org/2000/svg" xmlns:xlink="http://www.w3.org/1999/xlink" width="137" height="138" viewBox="0 0 137 138">
  <defs>
    <clipPath id="clip-path">
      <ellipse id="Ellipse_43" data-name="Ellipse 43" cx="68.5" cy="69" rx="68.5" ry="69" transform="translate(1270 844)" fill="#efefef"/>
    </clipPath>
  </defs>
  <g id="Mask_Group_47" data-name="Mask Group 47" transform="translate(-1270 -844)" opacity="0.695" clip-path="url(#clip-path)" style="mix-blend-mode: luminosity;isolation: isolate">
    <g id="Group_8682" data-name="Group 8682" transform="translate(-4805.95 9317.094)">
      <rect id="Rectangle_5016" data-name="Rectangle 5016" width="137" height="102.75" transform="translate(6075.95 -8455.469)" fill="none"/>
      <g id="Global_Logos_Logo-Black-115x116" data-name="Global/Logos/Logo-Black-115x116" transform="translate(6081.488 -8464.888)">
        <g id="Nissan-Brand-Logo-RGB-B-w_R" transform="translate(6.85 13.7)">
          <path id="Path" d="M15.118,33.915a42.294,42.294,0,0,1,80.482,0l.047.146h12.811V32.492l-5.328-.633c-3.284-.393-3.988-1.874-4.881-3.754l-.228-.463A47.208,47.208,0,0,0,55.346,0,47.2,47.2,0,0,0,12.673,27.642l-.218.456c-.89,1.879-1.6,3.361-4.878,3.755l-5.328.64v1.576H15.059Z" transform="translate(0.759)"/>
          <path id="Path-2" data-name="Path" d="M95.65,44.963l-.047.146A42.54,42.54,0,0,1,55.359,74.38h0A42.511,42.511,0,0,1,15.124,45.1l-.054-.143H2.248v1.574l5.328.635c3.279.393,3.991,1.877,4.881,3.753l.216.451A47.217,47.217,0,0,0,55.355,79.023h0A47.22,47.22,0,0,0,98.032,51.381l.218-.458c.889-1.874,1.59-3.358,4.881-3.749l5.332-.635V44.965Z" transform="translate(0.759 15.167)"/>
          <rect id="Rectangle" width="3.006" height="13.026" transform="translate(23.046 41.082)"/>
          <path id="Path-3" data-name="Path" d="M16.032,43.744V30.718H13.179v9.707L3.672,30.718H0V43.744H2.854V33.97l9.573,9.773Z" transform="translate(0 10.364)"/>
          <path id="Shape" d="M62.359,30.718,53.944,43.744h3.618l1.5-2.326h9.815l1.5,2.326H73.98L65.573,30.718Zm4.973,8.231H60.6l3.372-5.235Z" transform="translate(18.2 10.364)"/>
          <path id="Path-4" data-name="Path" d="M52.611,41.033c-.086.014-.462.026-.611.026H40.1v2.685H52.187c.1,0,.8,0,.966-.019a3.988,3.988,0,0,0,.171-7.913,9.093,9.093,0,0,0-.966-.042h-7.9a4.765,4.765,0,0,1-.879-.066,1.125,1.125,0,0,1-.85-1.135,1.18,1.18,0,0,1,.872-1.133,3,3,0,0,1,.828-.059h11.41V30.722H44.248a8.617,8.617,0,0,0-1.159.059,3.836,3.836,0,0,0-.053,7.61,9.867,9.867,0,0,0,1.243.054h7.7a5.559,5.559,0,0,1,.557.016,1.3,1.3,0,0,1,.07,2.569" transform="translate(13.397 10.364)"/>
          <path id="Path-5" data-name="Path" d="M36.128,41.032c-.086.014-.463.026-.611.026h-11.9v2.685h12.09c.1,0,.8,0,.966-.019a3.988,3.988,0,0,0,.186-7.913,9.149,9.149,0,0,0-.966-.042H27.975A4.742,4.742,0,0,1,27.1,35.7a1.128,1.128,0,0,1-.856-1.135,1.181,1.181,0,0,1,.873-1.134,3,3,0,0,1,.828-.059H39.35V30.721H27.764a8.59,8.59,0,0,0-1.159.059,3.837,3.837,0,0,0-.053,7.612,9.88,9.88,0,0,0,1.246.054h7.7c.147,0,.483,0,.56.016a1.3,1.3,0,0,1,.07,2.569" transform="translate(7.836 10.364)"/>
          <path id="Path-6" data-name="Path" d="M87.957,43.744V30.718H85.1v9.707l-9.5-9.707H71.925V43.744h2.854V33.97l9.573,9.773Z" transform="translate(24.266 10.364)"/>
          <path id="Shape-2" data-name="Shape" d="M79.717,64.434a2.488,2.488,0,1,1-1.8.709,2.488,2.488,0,0,1,1.8-.709Zm0,4.517a1.952,1.952,0,1,0-1.961-1.926A1.952,1.952,0,0,0,79.717,68.95Zm-.962-.721V65.708a4.96,4.96,0,0,1,.931-.086c.452,0,1.108.086,1.108.741a.64.64,0,0,1-.519.589v.041a.716.716,0,0,1,.438.616,2.24,2.24,0,0,0,.193.63h-.575a2.147,2.147,0,0,1-.193-.63c-.1-.4-.315-.4-.834-.4V68.24Zm.56-1.423c.428,0,.892,0,.892-.384,0-.241-.166-.4-.563-.4a1.443,1.443,0,0,0-.33.029Z" transform="translate(26.036 21.738)" fill="#231916"/>
        </g>
      </g>
    </g>
  </g>
</svg>
