<svg xmlns="http://www.w3.org/2000/svg" xmlns:xlink="http://www.w3.org/1999/xlink" width="138" height="138" viewBox="0 0 138 138">
  <defs>
    <clipPath id="clip-path">
      <circle id="Ellipse_44" data-name="Ellipse 44" cx="69" cy="69" r="69" transform="translate(1431 844)" fill="#efefef"/>
    </clipPath>
  </defs>
  <g id="Mask_Group_48" data-name="Mask Group 48" transform="translate(-1431 -844)" opacity="0.695" clip-path="url(#clip-path)" style="mix-blend-mode: luminosity;isolation: isolate">
    <g id="Group_8676" data-name="Group 8676" transform="translate(-4598.737 9544.037)">
      <rect id="Rectangle_5016" data-name="Rectangle 5016" width="138" height="103.5" transform="translate(6029.737 -8682.787)" fill="none"/>
      <g id="_-Symbols" data-name="•-Symbols" transform="translate(6035.422 -8697.45)">
        <g id="Nav_HP_1500" data-name="Nav/HP/1500" transform="translate(0 29.325)">
          <g id="InfinitiLogo_USCAN_RGB_V1-Copy">
            <g id="Group_8675" data-name="Group 8675">
              <path id="Fill-1" d="M41.082,21.6c-4.234-.36-11.592-3.139-11.592-7.988,0-6.15,10.683-11.851,24.15-11.851,14.145,0,24.159,5.7,24.159,11.851,0,4.848-7.331,7.59-11.57,7.953-1.168-1.5-12.592-16.707-12.592-16.707S42.176,20.194,41.082,21.6Zm33.81,5.2c5.617-2.76,8.272-7.349,8.272-11.4C83.165,6.72,71.042,0,53.642,0S24.127,6.72,24.127,15.409c0,4.049,2.654,8.638,8.272,11.4,5.21,2.561,12.586,3.45,13.651,3.579l7.59-22.1,7.67,22.1c1.066-.129,8.37-1.019,13.584-3.579Z" transform="translate(7.129)" fill-rule="evenodd"/>
              <g id="INFINITI" transform="translate(0 44.279)">
                <path id="Fill-2" d="M18.606,10.35S14.867.65,14.782.4,14.49,0,14.1,0H10.532V12.6h2.406V2.386s3.684,9.574,3.781,9.817a.609.609,0,0,0,.63.4H21.01V0h-2.4Z" transform="translate(3.112)" fill-rule="evenodd"/>
                <path id="Fill-3" d="M26.536,12.6h2.829s0-5.089,0-5.36h5.1v-2.3l-5.1,0V2.318H34.54V0h-8Z" transform="translate(7.841)" fill-rule="evenodd"/>
                <path id="Fill-4" d="M77.067,2.424h3.159V12.6h2.88V2.424h3.15V0H77.067Z" transform="translate(22.772)" fill-rule="evenodd"/>
                <path id="Fill-5" d="M40.406,12.6h3.046V0H40.406Z" transform="translate(11.939 0.001)" fill-rule="evenodd"/>
                <path id="Fill-6" d="M67.2,12.6h3.049V0H67.2Z" transform="translate(19.856 0.001)" fill-rule="evenodd"/>
                <path id="Fill-7" d="M91.641,12.6h3.034V0H91.641Z" transform="translate(27.078 0.001)" fill-rule="evenodd"/>
                <path id="Fill-8" d="M0,12.6H3.048V0H0Z" transform="translate(0 0.001)" fill-rule="evenodd"/>
                <path id="Fill-9" d="M59.058,0V10.35S55.317.65,55.231.4a.621.621,0,0,0-.676-.4H50.982V12.6h2.406V2.386s3.695,9.574,3.783,9.817a.611.611,0,0,0,.624.4h3.672V0Z" transform="translate(15.064)" fill-rule="evenodd"/>
                <path id="Fill-25" d="M98.139,8.876c.159,0,.345-.031.345-.259,0-.18-.121-.243-.36-.243h-.259v.5Zm.138.207.641.566h-.39l-.622-.535h-.044v.535h-.3V8.116h.668c.292,0,.549.122.549.486a.488.488,0,0,1-.457.475Zm-.144-1.527a1.361,1.361,0,1,0,1.4,1.365,1.38,1.38,0,0,0-1.4-1.365Zm0,3.041a1.68,1.68,0,1,1,1.743-1.676A1.718,1.718,0,0,1,98.133,10.6Z" transform="translate(28.481 2.139)" fill-rule="evenodd"/>
              </g>
            </g>
          </g>
        </g>
      </g>
    </g>
  </g>
</svg>
