<svg xmlns="http://www.w3.org/2000/svg" width="85" height="85" viewBox="0 0 85 85">
  <g id="Group_99" data-name="Group 99" transform="translate(4359 11814)">
    <g id="Group_96" data-name="Group 96" transform="translate(-5638 -15316)">
      <g id="Ellipse_19" data-name="Ellipse 19" transform="translate(1279 3502)" fill="none" stroke="#707070" stroke-width="0.5">
        <circle cx="42.5" cy="42.5" r="42.5" stroke="none"/>
        <circle cx="42.5" cy="42.5" r="42.25" fill="none"/>
      </g>
      <g id="transfer-svgrepo-com" transform="translate(1295.888 3524.17)">
        <g id="Group_14" data-name="Group 14" transform="translate(6.294)">
          <path id="Path_8" data-name="Path 8" d="M9.674,18.137H21.242a3.287,3.287,0,0,0,3.281-3.281V3.281A3.287,3.287,0,0,0,21.242,0H9.674A3.287,3.287,0,0,0,6.394,3.281V14.848A3.278,3.278,0,0,0,9.674,18.137ZM8.38,3.281A1.289,1.289,0,0,1,9.666,1.994H21.234A1.289,1.289,0,0,1,22.52,3.281V14.848a1.289,1.289,0,0,1-1.286,1.286H9.674a1.289,1.289,0,0,1-1.286-1.286V3.281Z" transform="translate(-6.385)" fill="#7e7e7e"/>
          <path id="Path_9" data-name="Path 9" d="M274.009,26.732l-6.439-6.439a1,1,0,0,0-1.408,1.408l4.738,4.738H257a1,1,0,1,0,0,2h13.9l-4.738,4.738a1,1,0,0,0,1.416,1.408l6.439-6.439A1.01,1.01,0,0,0,274.009,26.732Z" transform="translate(-235.667 -18.372)" fill="#7e7e7e"/>
          <path id="Path_10" data-name="Path 10" d="M276.231,279.348V267.781a3.287,3.287,0,0,0-3.281-3.281H261.375a3.287,3.287,0,0,0-3.281,3.281v11.567a3.287,3.287,0,0,0,3.281,3.281h11.568A3.288,3.288,0,0,0,276.231,279.348Zm-1.994,0a1.289,1.289,0,0,1-1.286,1.286H261.375a1.289,1.289,0,0,1-1.286-1.286V267.781a1.289,1.289,0,0,1,1.286-1.286h11.568a1.289,1.289,0,0,1,1.286,1.286v11.567Z" transform="translate(-237.597 -242.969)" fill="#7e7e7e"/>
          <path id="Path_11" data-name="Path 11" d="M13.726,299.281a1,1,0,0,0,.708-.293.992.992,0,0,0,0-1.408L9.7,292.842H23.6a1,1,0,1,0,0-2H9.7l4.738-4.738a1,1,0,1,0-1.408-1.408l-6.439,6.439a.992.992,0,0,0,0,1.408l6.439,6.439A.963.963,0,0,0,13.726,299.281Z" transform="translate(-6.294 -261.249)" fill="#7e7e7e"/>
        </g>
      </g>
      <path id="Icon_open-person" data-name="Icon open-person" d="M4.416,0A2.535,2.535,0,0,0,2.208,2.76,2.535,2.535,0,0,0,4.416,5.52,2.535,2.535,0,0,0,6.624,2.76,2.535,2.535,0,0,0,4.416,0ZM2.109,5.52A2.21,2.21,0,0,0,0,7.728v1.1H8.832v-1.1A2.2,2.2,0,0,0,6.723,5.52a3.1,3.1,0,0,1-2.307,1.1A3.1,3.1,0,0,1,2.109,5.52Z" transform="translate(1307 3529)" fill="#7e7e7e"/>
      <path id="Icon_open-person-2" data-name="Icon open-person" d="M4.416,0A2.535,2.535,0,0,0,2.208,2.76,2.535,2.535,0,0,0,4.416,5.52,2.535,2.535,0,0,0,6.624,2.76,2.535,2.535,0,0,0,4.416,0ZM2.109,5.52A2.21,2.21,0,0,0,0,7.728v1.1H8.832v-1.1A2.2,2.2,0,0,0,6.723,5.52a3.1,3.1,0,0,1-2.307,1.1A3.1,3.1,0,0,1,2.109,5.52Z" transform="translate(1327 3550)" fill="#7e7e7e"/>
    </g>
  </g>
</svg>
