<svg xmlns="http://www.w3.org/2000/svg" width="85" height="85" viewBox="0 0 85 85">
  <g id="Group_100" data-name="Group 100" transform="translate(4773 12018)">
    <g id="Group_95" data-name="Group 95" transform="translate(-5638 -15316)">
      <g id="Ellipse_18" data-name="Ellipse 18" transform="translate(865 3298)" fill="none" stroke="#707070" stroke-width="0.5">
        <circle cx="42.5" cy="42.5" r="42.5" stroke="none"/>
        <circle cx="42.5" cy="42.5" r="42.25" fill="none"/>
      </g>
      <path id="Icon_awesome-clipboard-list" data-name="Icon awesome-clipboard-list" d="M23.625,4.5H18a4.5,4.5,0,0,0-9,0H3.375A3.376,3.376,0,0,0,0,7.875v24.75A3.376,3.376,0,0,0,3.375,36h20.25A3.376,3.376,0,0,0,27,32.625V7.875A3.376,3.376,0,0,0,23.625,4.5ZM6.75,29.813a1.688,1.688,0,1,1,1.688-1.687A1.683,1.683,0,0,1,6.75,29.813Zm0-6.75a1.688,1.688,0,1,1,1.688-1.687A1.683,1.683,0,0,1,6.75,23.063Zm0-6.75a1.688,1.688,0,1,1,1.688-1.687A1.683,1.683,0,0,1,6.75,16.313Zm6.75-13.5A1.688,1.688,0,1,1,11.813,4.5,1.683,1.683,0,0,1,13.5,2.813Zm9,25.875a.564.564,0,0,1-.562.563H11.813a.564.564,0,0,1-.562-.562V27.563A.564.564,0,0,1,11.813,27H21.938a.564.564,0,0,1,.563.563Zm0-6.75a.564.564,0,0,1-.562.563H11.813a.564.564,0,0,1-.562-.562V20.813a.564.564,0,0,1,.563-.562H21.938a.564.564,0,0,1,.563.563Zm0-6.75a.564.564,0,0,1-.562.563H11.813a.564.564,0,0,1-.562-.562V14.063a.564.564,0,0,1,.563-.562H21.938a.564.564,0,0,1,.563.563Z" transform="translate(894 3320)" fill="#7e7e7e"/>
    </g>
  </g>
</svg>
